<?xml version="1.0" encoding="utf-8" ?>
<svg baseProfile="full" height="1254" version="1.1" viewBox="0 0 1254 1254" width="1254" xmlns="http://www.w3.org/2000/svg" xmlns:ev="http://www.w3.org/2001/xml-events" xmlns:xlink="http://www.w3.org/1999/xlink"><defs /><path d="M 16 679 L 15 691 L 13 695 L 13 706 L 12 707 L 12 711 L 13 712 L 11 713 L 12 715 L 11 716 L 11 764 L 12 765 L 11 767 L 12 768 L 12 772 L 13 773 L 13 783 L 14 784 L 14 786 L 16 787 L 15 788 L 15 795 L 17 796 L 16 797 L 16 801 L 19 805 L 18 807 L 21 811 L 21 815 L 22 816 L 22 818 L 23 819 L 23 821 L 24 822 L 24 824 L 26 828 L 26 831 L 28 834 L 28 838 L 30 840 L 30 842 L 32 845 L 32 847 L 34 849 L 34 851 L 37 857 L 37 859 L 38 859 L 40 861 L 39 863 L 40 863 L 42 865 L 42 868 L 45 874 L 49 878 L 57 894 L 58 894 L 61 897 L 60 899 L 62 899 L 63 900 L 63 902 L 64 902 L 66 904 L 66 906 L 68 908 L 68 909 L 74 915 L 74 917 L 76 918 L 76 920 L 77 920 L 80 923 L 81 923 L 88 930 L 89 933 L 99 943 L 100 943 L 101 945 L 105 947 L 108 950 L 108 951 L 110 953 L 111 953 L 118 960 L 119 960 L 122 963 L 126 965 L 129 968 L 129 969 L 131 969 L 135 973 L 140 974 L 141 976 L 143 976 L 147 979 L 149 979 L 150 981 L 152 981 L 153 983 L 163 988 L 165 988 L 166 989 L 165 990 L 169 990 L 170 991 L 170 993 L 174 993 L 175 994 L 177 994 L 182 998 L 184 998 L 192 1002 L 195 1002 L 201 1005 L 205 1005 L 206 1006 L 205 1007 L 211 1007 L 212 1009 L 216 1009 L 219 1011 L 223 1011 L 224 1012 L 231 1012 L 235 1015 L 242 1015 L 246 1017 L 257 1017 L 258 1018 L 346 1018 L 347 1017 L 359 1017 L 361 1015 L 369 1015 L 373 1012 L 384 1011 L 387 1009 L 393 1009 L 394 1007 L 397 1007 L 399 1005 L 403 1005 L 406 1003 L 413 1002 L 416 1000 L 419 1000 L 422 998 L 424 998 L 425 996 L 428 996 L 429 994 L 435 993 L 437 992 L 438 990 L 441 990 L 442 988 L 452 983 L 454 983 L 455 981 L 457 981 L 464 976 L 466 976 L 468 974 L 471 973 L 475 969 L 478 969 L 478 968 L 480 967 L 480 966 L 482 965 L 483 963 L 485 963 L 486 961 L 492 958 L 492 957 L 502 948 L 503 948 L 508 943 L 508 942 L 510 941 L 510 940 L 512 939 L 513 937 L 514 937 L 515 935 L 519 933 L 519 931 L 527 923 L 531 921 L 533 917 L 535 916 L 535 914 L 537 912 L 540 911 L 541 909 L 543 907 L 544 907 L 543 906 L 553 896 L 554 896 L 555 894 L 568 881 L 569 881 L 569 880 L 574 875 L 575 875 L 583 867 L 584 864 L 586 862 L 587 862 L 600 848 L 602 848 L 602 847 L 604 846 L 604 844 L 606 843 L 607 841 L 620 828 L 621 828 L 621 827 L 623 826 L 624 824 L 626 822 L 627 822 L 627 821 L 629 820 L 629 819 L 632 816 L 633 816 L 633 814 L 639 808 L 641 808 L 641 807 L 644 804 L 645 804 L 645 802 L 651 796 L 652 796 L 652 795 L 654 793 L 655 793 L 658 790 L 658 789 L 667 780 L 669 780 L 676 772 L 676 771 L 679 768 L 680 768 L 683 765 L 684 765 L 684 763 L 694 753 L 695 753 L 696 751 L 706 741 L 708 741 L 708 740 L 710 739 L 710 737 L 715 732 L 716 732 L 723 725 L 723 724 L 725 723 L 726 721 L 727 721 L 727 720 L 736 711 L 736 710 L 738 708 L 739 708 L 739 707 L 741 706 L 750 697 L 751 697 L 751 695 L 753 693 L 754 693 L 754 692 L 756 691 L 760 687 L 761 685 L 765 683 L 765 682 L 767 681 L 767 680 L 770 677 L 771 677 L 774 673 L 775 673 L 775 671 L 778 668 L 780 668 L 780 666 L 811 635 L 812 635 L 815 631 L 816 631 L 816 629 L 817 628 L 819 628 L 819 627 L 824 622 L 825 622 L 825 620 L 826 619 L 828 619 L 828 618 L 830 617 L 830 616 L 839 607 L 840 605 L 841 605 L 848 599 L 852 597 L 853 595 L 855 595 L 854 594 L 855 593 L 871 585 L 871 584 L 875 581 L 877 581 L 879 579 L 885 576 L 888 576 L 890 574 L 892 574 L 895 572 L 897 572 L 899 570 L 903 569 L 905 567 L 911 566 L 914 564 L 918 564 L 922 562 L 927 562 L 928 561 L 935 561 L 938 559 L 964 559 L 968 561 L 976 561 L 977 562 L 982 562 L 986 564 L 990 564 L 992 566 L 996 566 L 1001 569 L 1003 569 L 1006 572 L 1008 572 L 1011 574 L 1014 574 L 1016 576 L 1018 576 L 1028 581 L 1032 585 L 1033 585 L 1035 587 L 1039 588 L 1042 591 L 1043 591 L 1049 597 L 1051 597 L 1053 599 L 1054 599 L 1075 621 L 1075 622 L 1081 628 L 1081 629 L 1083 630 L 1084 633 L 1088 638 L 1091 644 L 1094 646 L 1094 648 L 1096 649 L 1095 650 L 1096 650 L 1098 652 L 1099 654 L 1099 657 L 1102 662 L 1102 664 L 1104 666 L 1104 668 L 1107 672 L 1106 673 L 1108 674 L 1107 675 L 1107 677 L 1109 680 L 1110 686 L 1112 690 L 1112 694 L 1114 698 L 1114 703 L 1116 704 L 1115 705 L 1115 711 L 1116 711 L 1118 714 L 1118 724 L 1119 725 L 1119 731 L 1120 732 L 1120 748 L 1119 749 L 1119 755 L 1118 756 L 1118 765 L 1115 768 L 1115 775 L 1114 776 L 1114 781 L 1112 785 L 1112 790 L 1109 796 L 1110 798 L 1108 799 L 1109 801 L 1107 802 L 1108 804 L 1106 805 L 1107 806 L 1106 808 L 1104 809 L 1104 811 L 1102 814 L 1101 819 L 1098 825 L 1096 826 L 1095 829 L 1092 832 L 1091 832 L 1091 834 L 1089 836 L 1089 838 L 1084 844 L 1084 845 L 1079 850 L 1078 853 L 1076 854 L 1076 856 L 1066 866 L 1064 866 L 1064 868 L 1057 875 L 1053 876 L 1049 881 L 1043 884 L 1042 886 L 1040 886 L 1037 889 L 1035 889 L 1033 891 L 1031 891 L 1032 892 L 1031 893 L 1028 893 L 1028 894 L 1024 897 L 1022 897 L 1016 901 L 1014 901 L 1008 904 L 1006 904 L 1005 906 L 1001 906 L 1000 908 L 996 908 L 994 910 L 991 910 L 990 911 L 987 911 L 986 912 L 983 912 L 982 913 L 977 913 L 973 915 L 966 915 L 965 916 L 940 916 L 939 915 L 932 915 L 928 913 L 923 913 L 922 912 L 919 912 L 915 910 L 912 910 L 909 908 L 906 908 L 905 906 L 901 906 L 899 904 L 897 904 L 894 902 L 892 902 L 891 901 L 887 900 L 886 898 L 884 898 L 880 895 L 878 895 L 875 892 L 875 891 L 873 891 L 869 888 L 865 886 L 863 886 L 859 881 L 859 880 L 857 880 L 854 877 L 851 876 L 849 874 L 845 872 L 844 870 L 843 870 L 842 868 L 841 868 L 839 866 L 839 865 L 827 853 L 827 851 L 826 851 L 822 847 L 822 846 L 821 846 L 820 844 L 818 843 L 818 842 L 816 842 L 815 841 L 815 839 L 814 839 L 810 835 L 810 834 L 808 833 L 807 830 L 805 830 L 803 828 L 802 828 L 801 826 L 789 815 L 789 813 L 788 813 L 782 807 L 781 807 L 777 803 L 777 801 L 776 801 L 770 795 L 769 795 L 763 789 L 763 787 L 757 781 L 754 780 L 753 778 L 751 777 L 751 776 L 745 770 L 745 769 L 743 768 L 716 768 L 705 780 L 701 782 L 698 785 L 698 786 L 689 795 L 688 797 L 685 798 L 685 800 L 682 803 L 681 803 L 682 804 L 676 809 L 674 809 L 675 810 L 672 813 L 671 813 L 671 815 L 665 821 L 664 821 L 664 822 L 662 823 L 658 828 L 657 828 L 652 833 L 650 834 L 650 839 L 652 839 L 662 849 L 662 850 L 666 854 L 666 855 L 668 856 L 669 858 L 671 859 L 671 860 L 673 860 L 678 865 L 679 868 L 681 870 L 682 870 L 683 872 L 685 873 L 687 875 L 687 876 L 689 877 L 689 878 L 691 878 L 692 879 L 691 880 L 692 880 L 703 891 L 703 892 L 712 900 L 712 902 L 714 902 L 718 906 L 720 910 L 721 910 L 722 912 L 723 912 L 724 914 L 725 914 L 726 916 L 741 930 L 741 932 L 743 933 L 745 935 L 745 936 L 746 936 L 747 938 L 752 943 L 753 943 L 757 947 L 758 947 L 763 952 L 763 953 L 764 953 L 767 956 L 768 956 L 770 959 L 771 959 L 773 961 L 780 965 L 781 967 L 783 967 L 784 969 L 785 969 L 787 971 L 789 971 L 791 973 L 791 974 L 795 975 L 799 977 L 801 979 L 803 979 L 804 981 L 806 981 L 807 983 L 808 983 L 810 985 L 812 985 L 817 988 L 819 988 L 821 990 L 823 990 L 824 991 L 824 993 L 828 993 L 829 994 L 831 994 L 833 996 L 835 996 L 837 998 L 839 998 L 842 1000 L 845 1000 L 847 1002 L 854 1003 L 857 1005 L 862 1005 L 864 1007 L 868 1007 L 869 1009 L 874 1009 L 877 1011 L 882 1011 L 883 1012 L 889 1012 L 891 1014 L 893 1014 L 894 1015 L 903 1015 L 906 1017 L 928 1017 L 929 1018 L 977 1018 L 978 1017 L 999 1017 L 1002 1015 L 1011 1015 L 1012 1014 L 1014 1014 L 1016 1012 L 1022 1012 L 1023 1011 L 1028 1011 L 1031 1009 L 1037 1009 L 1038 1007 L 1042 1007 L 1043 1005 L 1048 1005 L 1050 1003 L 1054 1003 L 1060 1000 L 1063 1000 L 1066 998 L 1068 998 L 1072 996 L 1073 994 L 1079 993 L 1081 990 L 1084 990 L 1085 988 L 1088 988 L 1090 986 L 1092 986 L 1093 985 L 1097 984 L 1099 981 L 1101 981 L 1103 979 L 1105 979 L 1107 977 L 1110 976 L 1112 974 L 1115 973 L 1117 971 L 1121 969 L 1121 968 L 1123 967 L 1124 965 L 1126 965 L 1129 962 L 1136 958 L 1136 957 L 1138 956 L 1138 955 L 1140 953 L 1142 953 L 1142 952 L 1144 950 L 1145 950 L 1152 943 L 1153 943 L 1152 942 L 1153 941 L 1154 941 L 1162 933 L 1164 933 L 1164 931 L 1166 928 L 1167 928 L 1174 921 L 1175 921 L 1177 917 L 1184 909 L 1185 906 L 1189 902 L 1190 899 L 1195 894 L 1196 894 L 1197 890 L 1204 880 L 1204 878 L 1206 876 L 1206 875 L 1209 872 L 1210 872 L 1211 866 L 1213 864 L 1213 862 L 1215 860 L 1215 858 L 1217 857 L 1217 855 L 1219 854 L 1218 850 L 1220 849 L 1221 847 L 1222 841 L 1224 839 L 1224 836 L 1226 833 L 1227 826 L 1229 823 L 1229 821 L 1231 817 L 1231 814 L 1233 812 L 1233 808 L 1236 804 L 1236 800 L 1235 799 L 1237 798 L 1237 794 L 1236 793 L 1238 792 L 1238 790 L 1239 789 L 1239 780 L 1241 776 L 1241 702 L 1239 698 L 1239 689 L 1237 685 L 1237 678 L 1235 677 L 1236 676 L 1236 673 L 1235 673 L 1234 672 L 1235 671 L 1233 670 L 1233 665 L 1231 663 L 1231 660 L 1229 657 L 1229 654 L 1227 652 L 1227 649 L 1226 648 L 1226 645 L 1224 641 L 1224 638 L 1222 636 L 1222 634 L 1220 630 L 1218 628 L 1218 626 L 1215 620 L 1215 618 L 1213 617 L 1213 614 L 1211 613 L 1211 609 L 1209 605 L 1204 599 L 1204 597 L 1202 596 L 1203 595 L 1203 593 L 1202 593 L 1201 591 L 1200 591 L 1198 589 L 1196 583 L 1195 583 L 1189 577 L 1189 575 L 1187 574 L 1187 573 L 1184 570 L 1184 568 L 1173 556 L 1173 554 L 1172 554 L 1168 550 L 1167 550 L 1157 539 L 1157 538 L 1156 538 L 1155 536 L 1153 536 L 1152 535 L 1153 534 L 1151 534 L 1147 530 L 1147 529 L 1146 529 L 1142 525 L 1139 524 L 1138 522 L 1137 522 L 1130 515 L 1129 515 L 1126 512 L 1119 508 L 1116 505 L 1115 505 L 1110 501 L 1107 500 L 1104 497 L 1102 497 L 1100 495 L 1098 495 L 1091 490 L 1086 489 L 1084 487 L 1082 487 L 1072 482 L 1070 482 L 1068 480 L 1066 480 L 1065 479 L 1065 477 L 1061 477 L 1059 475 L 1051 474 L 1048 472 L 1045 472 L 1044 471 L 1038 470 L 1037 469 L 1033 469 L 1030 467 L 1025 467 L 1022 465 L 1017 465 L 1013 463 L 1004 463 L 1000 461 L 986 461 L 985 460 L 919 460 L 918 461 L 904 461 L 903 462 L 900 462 L 899 463 L 891 463 L 887 465 L 883 465 L 882 466 L 880 466 L 879 467 L 875 467 L 871 469 L 862 470 L 859 472 L 855 472 L 852 474 L 844 475 L 842 477 L 840 477 L 836 480 L 834 480 L 832 482 L 830 482 L 821 487 L 817 487 L 815 489 L 813 489 L 803 495 L 800 495 L 798 497 L 790 501 L 783 506 L 780 506 L 781 508 L 780 509 L 776 510 L 774 512 L 773 512 L 772 514 L 766 517 L 766 519 L 764 520 L 763 522 L 762 522 L 756 527 L 752 529 L 741 540 L 740 540 L 740 541 L 724 557 L 724 558 L 722 559 L 721 561 L 720 561 L 720 563 L 718 564 L 713 569 L 712 569 L 712 570 L 710 571 L 710 572 L 706 576 L 705 576 L 705 577 L 703 578 L 699 583 L 698 583 L 698 585 L 693 590 L 692 590 L 689 593 L 687 593 L 687 595 L 679 603 L 679 604 L 677 606 L 674 607 L 674 609 L 660 622 L 660 624 L 654 630 L 653 630 L 649 634 L 648 634 L 648 635 L 635 648 L 635 650 L 631 654 L 628 655 L 623 660 L 621 664 L 619 666 L 617 666 L 617 668 L 615 669 L 605 680 L 602 681 L 602 682 L 600 683 L 599 685 L 588 696 L 586 697 L 586 698 L 582 702 L 582 703 L 577 707 L 577 708 L 573 712 L 573 713 L 571 714 L 571 715 L 567 719 L 565 719 L 566 720 L 562 723 L 561 723 L 561 724 L 553 733 L 552 733 L 550 735 L 549 735 L 548 737 L 547 737 L 547 738 L 537 748 L 537 749 L 535 750 L 535 752 L 533 754 L 532 754 L 532 755 L 530 756 L 529 758 L 528 758 L 523 763 L 522 763 L 522 764 L 520 765 L 520 767 L 517 770 L 515 770 L 515 771 L 507 780 L 506 780 L 502 784 L 501 784 L 497 788 L 496 788 L 496 790 L 492 794 L 492 795 L 487 800 L 485 800 L 486 801 L 485 802 L 483 802 L 483 804 L 476 811 L 474 811 L 474 813 L 459 828 L 458 828 L 448 838 L 448 839 L 446 840 L 446 841 L 444 842 L 444 843 L 442 844 L 442 845 L 440 846 L 440 847 L 435 851 L 435 852 L 433 854 L 431 854 L 431 857 L 423 865 L 423 866 L 421 868 L 419 868 L 420 869 L 419 870 L 418 870 L 415 873 L 408 877 L 405 881 L 402 882 L 394 888 L 387 891 L 386 893 L 384 893 L 383 895 L 381 895 L 377 898 L 375 898 L 371 901 L 366 902 L 364 904 L 361 904 L 359 906 L 355 906 L 356 907 L 355 908 L 352 908 L 350 910 L 346 910 L 345 911 L 342 911 L 338 913 L 334 913 L 333 914 L 329 914 L 328 915 L 322 915 L 321 916 L 310 916 L 309 917 L 305 917 L 304 918 L 298 917 L 297 916 L 286 916 L 285 915 L 279 915 L 275 913 L 270 913 L 266 911 L 258 910 L 256 908 L 253 908 L 251 906 L 248 906 L 247 905 L 248 904 L 244 904 L 242 902 L 237 901 L 234 898 L 230 897 L 229 895 L 227 895 L 226 893 L 224 893 L 223 891 L 221 891 L 217 889 L 215 887 L 212 886 L 208 882 L 207 882 L 203 877 L 202 877 L 200 875 L 198 875 L 195 872 L 194 872 L 193 870 L 191 869 L 191 868 L 177 854 L 176 851 L 171 847 L 169 843 L 166 840 L 166 838 L 164 835 L 164 833 L 160 829 L 159 826 L 157 825 L 158 824 L 157 824 L 154 820 L 154 818 L 152 815 L 151 809 L 149 808 L 149 805 L 147 803 L 146 799 L 145 798 L 145 796 L 143 793 L 142 783 L 140 780 L 140 776 L 139 775 L 139 772 L 138 771 L 138 762 L 136 761 L 137 760 L 137 742 L 135 741 L 136 740 L 136 732 L 137 731 L 137 716 L 138 715 L 138 709 L 137 708 L 139 707 L 139 703 L 140 702 L 140 696 L 142 693 L 143 685 L 145 683 L 145 679 L 147 676 L 147 674 L 149 672 L 149 670 L 151 668 L 151 666 L 152 665 L 153 660 L 155 657 L 155 655 L 156 653 L 158 652 L 157 651 L 158 650 L 160 650 L 159 648 L 161 646 L 162 646 L 161 645 L 163 643 L 164 643 L 163 642 L 168 636 L 169 632 L 171 631 L 172 629 L 173 629 L 173 627 L 175 625 L 176 625 L 176 624 L 179 621 L 180 621 L 180 619 L 192 607 L 193 605 L 194 605 L 201 599 L 203 599 L 202 598 L 203 597 L 205 597 L 205 596 L 208 593 L 210 593 L 210 592 L 214 588 L 221 585 L 223 583 L 225 583 L 228 580 L 231 579 L 233 577 L 238 576 L 240 574 L 242 574 L 245 572 L 247 572 L 250 569 L 252 569 L 256 566 L 259 566 L 261 564 L 266 564 L 267 563 L 273 562 L 274 561 L 280 561 L 283 559 L 290 559 L 291 558 L 295 558 L 296 557 L 315 557 L 316 558 L 320 558 L 321 559 L 329 559 L 330 560 L 333 560 L 334 561 L 340 561 L 341 562 L 344 562 L 348 564 L 351 564 L 353 566 L 360 567 L 366 572 L 369 572 L 371 574 L 374 574 L 376 576 L 378 576 L 386 580 L 392 585 L 399 588 L 401 590 L 403 590 L 404 592 L 408 595 L 409 595 L 410 597 L 412 597 L 413 599 L 415 599 L 422 605 L 423 605 L 426 608 L 427 611 L 429 611 L 435 617 L 435 618 L 436 618 L 439 621 L 439 623 L 440 623 L 441 625 L 443 625 L 448 630 L 448 631 L 450 633 L 450 635 L 454 637 L 455 639 L 457 639 L 465 647 L 465 648 L 466 648 L 478 660 L 478 662 L 479 662 L 488 671 L 490 672 L 489 673 L 491 674 L 491 675 L 497 681 L 497 682 L 499 683 L 502 686 L 502 687 L 503 687 L 507 691 L 508 691 L 509 693 L 510 693 L 515 698 L 515 700 L 516 700 L 522 706 L 549 706 L 554 700 L 554 699 L 556 698 L 556 697 L 561 692 L 562 692 L 567 687 L 567 686 L 572 682 L 572 681 L 574 679 L 576 679 L 576 678 L 580 674 L 581 674 L 581 672 L 587 666 L 589 666 L 588 665 L 592 662 L 593 662 L 592 661 L 603 650 L 604 650 L 613 640 L 615 640 L 615 635 L 613 634 L 612 632 L 611 632 L 599 620 L 600 619 L 598 619 L 589 610 L 590 609 L 589 609 L 585 605 L 585 604 L 576 595 L 576 594 L 575 594 L 571 590 L 570 590 L 550 570 L 550 569 L 548 568 L 533 553 L 533 552 L 525 544 L 525 543 L 522 542 L 507 527 L 506 527 L 501 522 L 500 522 L 496 518 L 496 517 L 494 516 L 494 515 L 490 514 L 487 511 L 487 510 L 484 510 L 482 508 L 481 508 L 477 504 L 477 503 L 475 503 L 473 501 L 471 501 L 469 499 L 468 499 L 467 497 L 465 497 L 464 495 L 462 495 L 459 493 L 457 493 L 456 491 L 454 490 L 449 489 L 445 486 L 446 485 L 441 485 L 440 484 L 438 484 L 437 482 L 434 482 L 432 480 L 430 480 L 429 479 L 429 477 L 425 477 L 424 476 L 424 465 L 426 461 L 426 455 L 427 454 L 427 451 L 428 450 L 428 448 L 430 447 L 429 443 L 430 442 L 431 437 L 433 436 L 432 435 L 434 434 L 434 432 L 436 429 L 436 426 L 439 420 L 439 418 L 441 415 L 442 410 L 444 409 L 444 406 L 446 405 L 446 403 L 448 402 L 448 399 L 450 398 L 450 395 L 452 393 L 453 393 L 454 389 L 456 388 L 456 386 L 458 384 L 459 384 L 459 382 L 467 372 L 467 371 L 486 351 L 488 351 L 488 349 L 492 345 L 493 345 L 496 342 L 497 342 L 500 339 L 501 339 L 503 337 L 503 336 L 507 334 L 508 332 L 514 329 L 516 327 L 519 326 L 522 323 L 524 323 L 524 322 L 525 321 L 527 321 L 528 319 L 530 319 L 534 316 L 536 316 L 538 314 L 540 314 L 542 312 L 545 312 L 544 311 L 545 310 L 547 310 L 549 308 L 551 308 L 553 306 L 555 306 L 558 304 L 564 304 L 568 302 L 576 301 L 578 298 L 583 298 L 585 296 L 588 296 L 591 294 L 595 294 L 599 292 L 607 292 L 608 291 L 618 291 L 619 290 L 623 290 L 624 289 L 642 289 L 643 290 L 647 290 L 648 291 L 657 291 L 658 292 L 665 292 L 668 294 L 673 294 L 675 296 L 680 296 L 682 298 L 685 298 L 688 301 L 692 301 L 693 302 L 696 302 L 700 304 L 704 304 L 707 306 L 709 306 L 711 308 L 714 308 L 716 310 L 718 310 L 719 312 L 721 312 L 723 314 L 725 314 L 726 316 L 727 316 L 729 318 L 731 318 L 735 321 L 737 321 L 738 323 L 740 324 L 740 325 L 750 330 L 751 332 L 753 332 L 754 334 L 758 335 L 762 340 L 762 341 L 763 341 L 766 344 L 767 344 L 773 350 L 774 352 L 776 352 L 786 362 L 786 364 L 788 365 L 789 368 L 796 374 L 797 378 L 801 381 L 800 383 L 803 385 L 803 386 L 805 388 L 805 390 L 807 392 L 807 393 L 809 394 L 810 397 L 812 399 L 812 401 L 817 410 L 817 412 L 819 415 L 819 417 L 821 419 L 821 421 L 822 422 L 822 424 L 824 428 L 824 432 L 825 434 L 827 435 L 855 435 L 856 434 L 860 434 L 862 432 L 871 431 L 874 429 L 879 429 L 881 427 L 884 427 L 885 426 L 888 426 L 889 425 L 893 425 L 894 424 L 897 424 L 898 423 L 903 423 L 905 421 L 913 421 L 917 419 L 933 419 L 933 411 L 931 408 L 930 400 L 928 397 L 928 393 L 926 390 L 927 388 L 925 387 L 926 386 L 926 384 L 924 383 L 925 382 L 923 381 L 924 379 L 923 379 L 921 377 L 922 376 L 921 376 L 920 375 L 921 374 L 919 373 L 920 371 L 917 369 L 918 367 L 916 365 L 916 363 L 914 361 L 914 359 L 912 357 L 912 355 L 911 355 L 910 354 L 910 352 L 907 350 L 907 347 L 905 345 L 905 343 L 903 342 L 903 340 L 901 338 L 899 333 L 897 333 L 896 332 L 897 331 L 895 330 L 895 328 L 893 327 L 892 324 L 890 322 L 888 318 L 882 312 L 881 309 L 879 307 L 879 305 L 878 305 L 877 303 L 876 303 L 874 301 L 872 297 L 871 297 L 860 286 L 860 285 L 858 283 L 857 283 L 846 272 L 846 271 L 840 268 L 833 261 L 832 261 L 830 259 L 830 258 L 829 258 L 827 256 L 825 256 L 822 253 L 819 252 L 818 250 L 814 249 L 813 247 L 809 245 L 808 243 L 804 242 L 803 240 L 800 239 L 798 237 L 796 237 L 794 235 L 793 235 L 792 233 L 790 233 L 780 228 L 778 228 L 774 225 L 775 224 L 774 223 L 769 223 L 768 222 L 766 222 L 765 220 L 762 220 L 761 218 L 759 218 L 756 216 L 752 216 L 746 213 L 743 213 L 741 211 L 737 211 L 736 209 L 732 209 L 731 208 L 725 208 L 723 207 L 722 205 L 710 204 L 706 202 L 699 202 L 696 200 L 688 200 L 687 199 L 688 198 L 582 198 L 581 200 L 572 200 L 569 202 L 561 202 L 557 204 L 546 205 L 542 208 L 532 209 L 530 211 L 527 211 L 525 213 L 517 214 L 514 216 L 508 217 L 504 220 L 502 220 L 499 222 L 497 222 L 495 224 L 493 224 L 492 226 L 490 226 L 488 228 L 486 228 L 481 231 L 478 231 L 476 233 L 474 233 L 473 235 L 471 235 L 466 239 L 462 240 L 460 242 L 457 243 L 454 246 L 453 246 L 439 256 L 435 257 L 432 260 L 431 260 L 428 263 L 427 263 L 427 264 L 424 267 L 423 267 L 416 273 L 415 273 L 415 274 L 411 278 L 409 278 L 409 279 L 405 283 L 403 283 L 403 285 L 393 295 L 391 296 L 391 297 L 388 300 L 388 301 L 385 304 L 384 304 L 379 310 L 379 311 L 376 314 L 375 314 L 375 316 L 372 319 L 371 319 L 371 321 L 369 322 L 369 324 L 361 334 L 361 336 L 359 338 L 356 343 L 354 343 L 355 345 L 352 348 L 351 348 L 351 351 L 349 353 L 349 355 L 347 356 L 347 358 L 345 359 L 345 363 L 342 366 L 341 372 L 339 374 L 339 376 L 337 378 L 336 378 L 337 380 L 335 381 L 336 383 L 334 384 L 333 388 L 331 391 L 331 394 L 329 396 L 329 398 L 327 400 L 327 404 L 326 405 L 326 408 L 324 412 L 324 417 L 322 419 L 322 424 L 321 425 L 321 430 L 320 431 L 320 434 L 319 435 L 319 441 L 317 445 L 316 456 L 315 457 L 274 457 L 273 458 L 258 458 L 257 459 L 253 459 L 252 460 L 237 461 L 234 463 L 228 463 L 225 465 L 220 465 L 219 467 L 214 467 L 212 469 L 210 469 L 209 470 L 206 470 L 202 472 L 198 472 L 196 474 L 189 475 L 187 477 L 185 477 L 179 482 L 177 482 L 172 485 L 170 485 L 168 487 L 166 487 L 164 489 L 162 489 L 159 491 L 154 492 L 154 494 L 153 495 L 151 495 L 149 497 L 147 497 L 144 500 L 140 501 L 139 503 L 135 505 L 131 509 L 125 512 L 122 515 L 121 515 L 111 525 L 110 525 L 101 534 L 99 534 L 99 535 L 97 536 L 97 537 L 95 539 L 94 539 L 92 542 L 90 543 L 90 544 L 85 549 L 85 550 L 80 554 L 79 554 L 79 556 L 77 558 L 77 559 L 74 562 L 74 563 L 72 564 L 71 566 L 70 566 L 70 568 L 68 569 L 68 571 L 66 573 L 65 573 L 65 575 L 63 576 L 63 578 L 61 580 L 60 580 L 59 581 L 59 583 L 57 584 L 57 587 L 54 590 L 51 596 L 49 598 L 49 601 L 45 606 L 45 608 L 43 609 L 43 611 L 40 617 L 38 619 L 37 619 L 37 623 L 34 628 L 33 632 L 31 634 L 30 639 L 28 640 L 28 644 L 26 646 L 27 648 L 25 651 L 25 654 L 24 655 L 24 657 L 23 658 L 23 660 L 21 664 L 21 668 L 19 671 L 19 675 L 17 676 L 18 678 Z " fill="#0d2b5c" fill-rule="evenodd" /></svg>